<?xml version="1.0" ?><svg id="Layer_1" style="enable-background:new 0 0 120 120;" version="1.1" viewBox="0 0 120 120" xml:space="preserve" xmlns="http://www.w3.org/2000/svg" xmlns:xlink="http://www.w3.org/1999/xlink"><style type="text/css">
	.st0{fill:#3C5DFF;}
	.st1{fill:#FFFFFF;}
	.st2{fill:#F9E0B2;}
</style><g><path class="st0" d="M39.8,100.8H19.9c-0.5,0-0.8-0.4-0.8-0.8V45c0-0.5,0.4-0.8,0.8-0.8h19.9c2.2,0,4,1.8,4,4v48.7   C43.8,99.1,42,100.8,39.8,100.8z"/><circle class="st1" cx="36.1" cy="93.4" r="3.5"/><path class="st2" d="M100.9,54.5v-0.8c0-3.4-2.4-6.2-5.4-6.2h-6.6H75.6c0,0-0.1,0,0-0.1l2.4-8.1c4.8-16.3-5.5-19.4-5.5-19.4   c-2.5-1-5.4-1.2-6.3,0.8c-0.7,1.5-1.3,4-1.8,6l-3,10c-1.5,5.1-4.1,9.9-9.5,10.9c-0.7,0.1-5,0.6-8,0.9v47.3c0.4,0.2,0.8,0.4,1.2,0.5   c3.4,0.9,8.2,2.2,10.2,2.7c0.6,0.2,1.2,0.2,1.9,0.2h10.5h21.4h3.4c2.8,0,5.4-2.3,5.7-5.5c0.3-3.3-1.7-6.2-4.4-6.7   c-0.1,0-0.1-0.1,0-0.1h1.8c3,0,5.4-2.8,5.4-6.2v-0.8c0-3.1-2-5.7-4.6-6.1c-0.1,0-0.1-0.1,0-0.1c2.6-0.4,4.6-3,4.6-6.1v-0.9   c0-3.1-2-5.7-4.6-6.1c-0.1,0-0.1-0.1,0-0.1C98.9,60.2,100.9,57.6,100.9,54.5z"/></g></svg>