<?xml version="1.0" ?><!DOCTYPE svg  PUBLIC '-//W3C//DTD SVG 1.1//EN'  'http://www.w3.org/Graphics/SVG/1.1/DTD/svg11.dtd'><svg enable-background="new 0 0 512 512" height="512px" id="Home_Icon_Drak_Grey" version="1.1" viewBox="0 0 512 512" width="512px" xml:space="preserve" xmlns="http://www.w3.org/2000/svg" xmlns:xlink="http://www.w3.org/1999/xlink"><path d="M219.5,327C160.776,327,113,279.224,113,220.5S160.776,114,219.5,114S326,161.776,326,220.5S278.224,327,219.5,327z   M219.5,146c-41.08,0-74.5,33.42-74.5,74.5s33.42,74.5,74.5,74.5s74.5-33.42,74.5-74.5S260.58,146,219.5,146z"/><path d="M380.414,400.222c-3.215,0-6.313-1.172-8.723-3.3l-103.17-91.114c-5.447-4.812-5.964-13.157-1.153-18.602l12.341-13.973  c2.494-2.829,6.097-4.455,9.877-4.455c3.215,0,6.313,1.172,8.723,3.3l103.17,91.114c5.447,4.812,5.964,13.157,1.153,18.602  l-12.341,13.973C387.797,398.596,384.195,400.222,380.414,400.222z"/></svg>